# xmcd
#
# Track frame offsets:
#	150
#	29931
#	48941
#	66978
#	84019
#
# Disc length: 1211 seconds
#
# Revision: 0
# Processed by: cddbd v1.5.2PL0 Copyright (c) Steve Scherf et al.
# Submitted via: dBpowerAMP V4.0
#
DISCID=3c04b905
DTITLE=From Beyond - Thrashin' Machine
DYEAR=2003
DGENRE=Thrash Metal
TTITLE0=Death Machine
TTITLE1=Into the arena
TTITLE2=Nightmare
TTITLE3=The dark order
TTITLE4=Epilogue
EXTD=
EXTT0=
EXTT1=
EXTT2=
EXTT3=
EXTT4=
PLAYORDER=
